<?xml version="1.0" standalone="no"?><!DOCTYPE svg PUBLIC "-//W3C//DTD SVG 1.1//EN" "http://www.w3.org/Graphics/SVG/1.1/DTD/svg11.dtd"><svg class="icon" height="512" viewBox="0 0 1024 1024" version="1.1" xmlns="http://www.w3.org/2000/svg"><path d="M741.12 662.4s0 40.96-39.68 40.96-48-21.76-64-49.92a249.6 249.6 0 0 0 85.12-192A243.84 243.84 0 0 0 480 216.96a243.84 243.84 0 0 0-240 247.04 243.84 243.84 0 0 0 240 247.68A232.96 232.96 0 0 0 549.12 704a144.64 144.64 0 0 0 117.76 83.84c112 0 116.48-122.24 116.48-122.24h-42.88z m-261.12 8.32c-77.44 0-139.52-94.72-139.52-206.72S402.56 256 480 256s140.16 94.08 140.16 208a276.48 276.48 0 0 1-26.88 121.6 128 128 0 0 0-74.24-57.6 154.88 154.88 0 0 0-123.52 26.24l14.72 30.72a78.08 78.08 0 0 1 51.84 0c23.68 5.12 41.6 37.76 64 74.88a99.84 99.84 0 0 1-46.08 10.88z" /></svg>